<svg id="Layer_1" data-name="Layer 1" xmlns="http://www.w3.org/2000/svg" viewBox="0 0 199.26 6.72"><defs><style>.cls-1{fill:none;stroke:#9e1738;stroke-linecap:round;stroke-linejoin:round;stroke-width:3px;}</style></defs><path class="cls-1" d="M1.87,3.48C5,5.43,8.54,6.92,11.94,6.8c4.86-.17,6.3-3.51,10.62-3.5s6,3.39,10.2,3.37c4.06,0,5.47-3.13,9.49-3.14S48,6.78,52.08,6.78s5.57-3.18,9.6-3.17S67,6.67,71,6.68s5.43-3.12,9.52-3.14C84.83,3.51,86.63,7,91,7s5.88-3.35,10.13-3.34S107,7,111.12,7s5.72-3.24,9.77-3.22c3.87,0,5.17,3,9,3s5.51-3.14,9.51-3.14,5.45,3.11,9.45,3.12,5.51-3.15,9.58-3.16,5.77,3.29,9.95,3.28,5.7-3.25,9.83-3.24c3.95,0,5.12,3,9.58,3.16,2.25.09,5.56-.51,10.33-3.41" transform="translate(-0.37 -1.8)"/></svg>