<?xml version="1.0" encoding="utf-8"?>
<!-- Generator: Adobe Illustrator 26.0.1, SVG Export Plug-In . SVG Version: 6.00 Build 0)  -->
<svg version="1.1" id="Layer_1" xmlns="http://www.w3.org/2000/svg" xmlns:xlink="http://www.w3.org/1999/xlink" x="0px" y="0px"
	 viewBox="0 0 40 10" style="enable-background:new 0 0 40 10;" xml:space="preserve">
<style type="text/css">
	.st0{fill:none;stroke:#9E1638;stroke-width:0.9;stroke-linecap:round;stroke-linejoin:round;stroke-miterlimit:10;}
</style>
<path class="st0" d="M13.9,8.1V1.9c0-0.8,0.6-1.4,1.4-1.4H36c2,0,3.5,1.6,3.5,3.5v2c0,2-1.6,3.5-3.5,3.5H15.3
	C14.6,9.5,13.9,8.9,13.9,8.1z"/>
<path class="st0" d="M0.3,5.5v-1c0-0.4,0.3-0.7,0.7-0.7h12.9v2.4H1C0.6,6.2,0.3,5.9,0.3,5.5z"/>
<path class="st0" d="M17.4,0.5c0.1,0.6,0.1,1.2-0.2,1.8c-0.5,1-1.7,1.1-1.6,1.6c0.2,1,3.8,1.7,3.8,2.2c0,0.4-2.1-0.2-2.6,0.6
	c-0.3,0.4-0.2,1.2,0.7,2.8"/>
</svg>
